# xmcd CD database file
#
# Track frame offsets:
#	150
#	19827
#	33387
#	53283
#	90393
#	107841
#	127924
#	147511
#	158706
#	172498
#	194410
#	217561
#	238565
#
# Disc length: 3389 seconds
#
# Revision: 0
# Processed by: cddbd v1.5.2PL0 Copyright (c) Steve Scherf et al.
# Submitted via: CDex 1.70beta2
#
DISCID=a60d3b0d
DTITLE=Arnvid Meyer and various - Right Out Of Kansas City [CD3)
DYEAR=1967
DGENRE=Jazz
TTITLE0=Brother John's Blues
TTITLE1=Duke's In Bed
TTITLE2=Nancy (With The Laughing Face)
TTITLE3=In A Mellotone
TTITLE4=Sophisticated Swing
TTITLE5=Sunday
TTITLE6=One O'Clock Jump
TTITLE7=Onyx Club Spree
TTITLE8=Blue Lou
TTITLE9=C Jam Blues
TTITLE10=I Want A Little Girl
TTITLE11=Stompy Jones
TTITLE12=Woostershire
EXTD=YEAR: 1967
EXTT0=
EXTT1=
EXTT2=
EXTT3=
EXTT4=
EXTT5=
EXTT6=
EXTT7=
EXTT8=
EXTT9=
EXTT10=
EXTT11=
EXTT12=
PLAYORDER=
